<svg xmlns="http://www.w3.org/2000/svg" width="24" height="18" viewBox="0 0 24 18">
    <g fill="none" fill-rule="evenodd">
        <path fill="#FFF" fill-rule="nonzero" d="M3 14.59a2.72 2.72 0 1 1 5.44-.02 2.72 2.72 0 0 1-5.44.02zm1.37 0a1.35 1.35 0 1 0 2.7 0 1.35 1.35 0 0 0-2.7 0zM18.07 14.59a2.72 2.72 0 1 1 2.71 2.71 2.71 2.71 0 0 1-2.71-2.71zm1.37 0a1.35 1.35 0 1 0 2.7 0 1.35 1.35 0 0 0-2.7 0z"/>
        <path fill="#FFF" fill-rule="nonzero" d="M.5 14.32a.78.78 0 1 0 1.55 0 3.67 3.67 0 0 1 7.33 0c0 .43.35.78.78.78h6c.43 0 .78-.35.78-.78a3.66 3.66 0 0 1 4.73-3.5.84.84 0 0 0 1.1-.42 1 1 0 0 0-.19-.82l-5.49-8.25a.76.76 0 0 0-.3-.26 1.002 1.002 0 0 0-.34-.07h-2.72a.77.77 0 0 0-.78.77c0 .43.35.78.78.78h1.91L17.71 10a5.11 5.11 0 0 0-1.48 1.52H11v-3h1a.76.76 0 0 0 .77-.77V7.2a.77.77 0 0 0-.77-.78H2.53a.78.78 0 0 0-.78.78v.55c0 .43.35.78.78.78h1.89v.74A5.22 5.22 0 0 0 .5 14.32z"/>
        <path fill="#FFF" fill-rule="nonzero" d="M8.68 5h-6.2a.77.77 0 1 1 0-1.53h6.2a.77.77 0 1 1 0 1.53zM7.65 2.23h-6.2a.77.77 0 1 1 0-1.53h6.2a.77.77 0 1 1 0 1.53z"/>
        <path d="M0-3h24v24H0z"/>
    </g>
</svg>
